<?xml version="1.0" encoding="UTF-8" standalone="no"?>
<!DOCTYPE svg PUBLIC "-//W3C//DTD SVG 1.1//EN" "http://www.w3.org/Graphics/SVG/1.1/DTD/svg11.dtd">
<svg width="100%" height="100%" viewBox="0 0 597 654" version="1.1" xmlns="http://www.w3.org/2000/svg" xmlns:xlink="http://www.w3.org/1999/xlink" xml:space="preserve" xmlns:serif="http://www.serif.com/" style="fill-rule:evenodd;clip-rule:evenodd;stroke-linejoin:round;stroke-miterlimit:2;">
    <g transform="matrix(1,0,0,1,-205.5,-79)">
        <g transform="matrix(1,0,0,1,205.5,79)">
            <path d="M297.365,559.539C168.936,559.539 65.635,455.934 65.635,327.129C65.635,198.323 168.936,94.718 297.365,94.718C346.223,94.718 390.894,110.119 427.189,135.32L427.189,58.317C283.405,-25.687 293.177,-15.887 149.393,68.117C-5.559,157.721 0.025,147.921 0.025,327.129C0.025,506.337 -5.559,496.536 149.393,586.14C304.344,675.744 293.177,675.744 446.732,586.14C601.684,496.536 596.1,506.337 596.1,327.129L596.1,154.921C573.765,142.32 552.825,129.72 530.49,117.119L530.49,327.129C530.49,455.934 425.793,559.539 297.365,559.539Z" style="fill:rgb(29,29,27);"/>
        </g>
        <g transform="matrix(1,0,0,1,374.436,275.566)">
            <path d="M247.085,75.96C178.683,35.359 69.798,201.966 0,117.962L0,130.563C0,201.966 58.63,260.769 129.824,260.769C201.018,260.769 259.648,201.966 259.648,130.563C259.648,110.962 254.065,92.761 247.085,75.96ZM97.717,56.359C108.885,59.159 115.865,71.76 113.073,82.96C110.281,94.161 97.717,101.161 86.549,98.361C75.382,95.561 68.402,82.96 71.194,71.76C73.986,60.559 85.153,53.559 97.717,56.359ZM113.073,0.357C118.656,1.757 122.844,7.357 120.052,14.357C118.656,19.958 113.073,24.158 106.093,21.358C100.509,19.958 96.321,14.357 99.113,7.357C100.509,1.757 107.489,-1.043 113.073,0.357ZM156.347,29.758C164.723,32.559 168.911,39.559 167.515,47.959C164.723,56.359 157.743,60.56 149.368,59.16C140.992,56.359 136.804,49.359 138.2,40.959C139.596,31.158 147.972,26.958 156.347,29.758ZM132.616,185.165C145.18,185.165 154.952,194.966 154.952,207.566C154.952,220.167 145.18,229.967 132.616,229.967C120.053,229.967 110.281,220.167 110.281,207.566C110.281,194.966 120.053,185.165 132.616,185.165ZM132.616,127.762C138.2,127.762 143.784,131.962 143.784,138.963C143.784,144.563 139.596,150.163 132.616,150.163C127.032,150.163 121.449,145.963 121.449,138.963C121.449,131.962 125.636,127.762 132.616,127.762ZM181.475,144.564C189.851,144.564 196.83,151.564 196.83,159.964C196.83,168.365 189.851,175.365 181.475,175.365C173.099,175.365 166.119,168.365 166.119,159.964C166.119,151.564 173.099,144.564 181.475,144.564Z" style="fill:rgb(237,28,36);"/>
        </g>
    </g>
</svg>
