<svg id="Layer_1" data-name="Layer 1" xmlns="http://www.w3.org/2000/svg" viewBox="0 0 400 140"><defs><style>.cls-1{fill:#333;}.cls-2{fill:#80bd01;}</style></defs><title>node</title><path class="cls-1" d="M60.92,73.3a3.26,3.26,0,0,0-1.64-2.81L32.58,55a3.37,3.37,0,0,0-1.41-.46H30.95a3.37,3.37,0,0,0-1.41.46l-27,15.46A3.22,3.22,0,0,0,.93,73.3v41.47a1.65,1.65,0,0,0,.71,1.41,2,2,0,0,0,1.64,0L19.22,107a3.56,3.56,0,0,0,1.64-2.81V84.77A3.59,3.59,0,0,1,22.49,82l6.8-4a4.38,4.38,0,0,1,1.64-.46,4.38,4.38,0,0,1,1.64.46l6.8,4A3.22,3.22,0,0,1,41,84.77v19.45A3.59,3.59,0,0,0,42.63,107l15.94,9.15a2,2,0,0,0,1.64,0,1.44,1.44,0,0,0,.71-1.41V73.3Z"/><path class="cls-1" d="M203.64,16.37a2,2,0,0,0-1.64,0,1.44,1.44,0,0,0-.71,1.41v41a1.25,1.25,0,0,1-.46.94,1.07,1.07,0,0,1-1.18,0L192.86,56a4,4,0,0,0-3.27,0l-26.7,15.46a3.22,3.22,0,0,0-1.64,2.81v30.94a3.59,3.59,0,0,0,1.64,2.81l26.7,15.46a4,4,0,0,0,3.27,0L219.56,108a3.22,3.22,0,0,0,1.64-2.81V28.07a3.26,3.26,0,0,0-1.64-2.81Zm-2.58,78.5a1.34,1.34,0,0,1-.46.71L191.45,101a0.46,0.46,0,0,1-.71,0l-9.15-5.39a1.2,1.2,0,0,1-.46-0.71V84.31a1.34,1.34,0,0,1,.46-0.71l9.15-5.39a0.46,0.46,0,0,1,.71,0l9.15,5.39a1.2,1.2,0,0,1,.46.71V94.87Z"/><path class="cls-1" d="M299.24,83.85A3.22,3.22,0,0,0,300.87,81V73.55a3.59,3.59,0,0,0-1.64-2.81L272.76,55.51a4,4,0,0,0-3.27,0L242.79,71a3.22,3.22,0,0,0-1.64,2.81v30.94a3.26,3.26,0,0,0,1.64,2.81l26.47,15.23a4,4,0,0,0,3.27,0l16.17-8.89a1.61,1.61,0,0,0,.94-1.41,1.65,1.65,0,0,0-.71-1.41L262,95.6a1.7,1.7,0,0,1-.71-1.41V84.54a1.65,1.65,0,0,1,.71-1.41l8.43-4.93a2,2,0,0,1,1.64,0l8.43,4.93a1.7,1.7,0,0,1,.71,1.41V92a1.65,1.65,0,0,0,.71,1.41,2,2,0,0,0,1.64,0Z"/><path class="cls-2" d="M109.43,55.26a4,4,0,0,1,3.27,0l26.73,15.46a3.22,3.22,0,0,1,1.64,2.81v30.94a3.59,3.59,0,0,1-1.64,2.81l-26.7,15.46a4,4,0,0,1-3.27,0L82.72,107.29a3.22,3.22,0,0,1-1.64-2.81V73.53a3.59,3.59,0,0,1,1.64-2.81Z"/><path class="cls-2" d="M351.26,123a4.62,4.62,0,0,1-2.58-.71l-8.43-4.93c-1.18-.71-0.71-0.94-0.23-1.18a13.31,13.31,0,0,0,3.76-1.64h0.71l6.57,3.76a0.46,0.46,0,0,0,.71,0l25.3-14.54a1.2,1.2,0,0,0,.46-0.71V74.25a1.34,1.34,0,0,0-.46-0.71L351.77,59a0.46,0.46,0,0,0-.71,0l-25.3,14.54a1.2,1.2,0,0,0-.46.71V103.3a1.34,1.34,0,0,0,.46.71l6.8,4c3.76,1.87,6.08-.23,6.08-2.58V76.6a0.63,0.63,0,0,1,.71-0.71h3.27a0.63,0.63,0,0,1,.71.71v28.82c0,4.93-2.81,8-7.49,8-1.41,0-2.58,0-5.85-1.64L323.43,108a5.42,5.42,0,0,1-2.58-4.68V74.25a5.39,5.39,0,0,1,2.58-4.68L348.73,55a5.48,5.48,0,0,1,5.39,0l25.3,14.54A5.42,5.42,0,0,1,382,74.25V103.3a5.39,5.39,0,0,1-2.58,4.68l-25.3,14.54A15.15,15.15,0,0,1,351.26,123Z"/><path class="cls-2" d="M359,103.07c-11,0-13.36-5.16-13.36-9.38a0.63,0.63,0,0,1,.71-0.71h3.27a0.63,0.63,0,0,1,.71.71c0.46,3.27,1.87,4.93,8.66,4.93,5.39,0,7.49-1.18,7.49-4,0-1.64-.71-2.81-8.89-3.76-6.8-.71-11.24-2.12-11.24-7.74,0-5.16,4.22-8.2,11.47-8.2,8,0,12.19,2.81,12.65,8.89,0,0.23,0,.46-0.23.46a0.46,0.46,0,0,1-.46.23h-3.27a0.81,0.81,0,0,1-.71-0.46c-0.71-3.53-2.58-4.68-8-4.68-5.85,0-6.57,2.12-6.57,3.53,0,1.87.71,2.35,8.66,3.53,7.74,0.94,11.47,2.58,11.47,8S367,103.07,359,103.07Z"/><path class="cls-2" d="M270.64,82.45h0.71l5.16,3c0.23,0,.23.23,0.23,0.46V91.8a0.8,0.8,0,0,1-.23.46l-5.16,3h-0.71l-5.16-3c-0.23,0-.23-0.23-0.23-0.46V86a0.8,0.8,0,0,1,.23-0.46Z"/><path class="cls-2" d="M399.07,62.77a4.93,4.93,0,1,1-4.93-4.93A5.12,5.12,0,0,1,399.07,62.77Zm-8.89,0a4,4,0,1,0,4-4A4.1,4.1,0,0,0,390.18,62.77Zm2.33-2.58h1.87c0.71,0,1.87,0,1.87,1.41A1.67,1.67,0,0,1,395.3,63c0.71,0,.71.46,0.94,1.18,0,0.46.23,1.18,0.23,1.41H395.3c0-.23-0.23-1.64-0.23-1.64a0.5,0.5,0,0,0-.46-0.46h-0.94V65.6h-1.18l0-5.41h0Zm0.94,2.33h0.94a0.82,0.82,0,0,0,.94-0.71,0.61,0.61,0,0,0-.71-0.71h-0.94v1.41h-0.23v0Z"/></svg>